<svg width="33" height="40" viewBox="0 0 33 40" fill="none" xmlns="http://www.w3.org/2000/svg">
<g clip-path="url(#clip0_111_17)">
<path d="M31.524 13.636C31.292 13.816 27.196 16.124 27.196 21.256C27.196 27.192 32.408 29.292 32.564 29.344C32.54 29.472 31.736 32.22 29.816 35.02C28.104 37.484 26.316 39.944 23.596 39.944C20.876 39.944 20.176 38.364 17.036 38.364C13.976 38.364 12.888 39.996 10.4 39.996C7.912 39.996 6.176 37.716 4.18 34.916C1.868 31.628 0 26.52 0 21.672C0 13.896 5.056 9.772 10.032 9.772C12.676 9.772 14.88 11.508 16.54 11.508C18.12 11.508 20.584 9.668 23.592 9.668C24.732 9.668 28.828 9.772 31.524 13.636ZM22.164 6.376C23.408 4.9 24.288 2.852 24.288 0.804C24.288 0.52 24.264 0.232 24.212 0C22.188 0.076 19.78 1.348 18.328 3.032C17.188 4.328 16.124 6.376 16.124 8.452C16.124 8.764 16.176 9.076 16.2 9.176C16.328 9.2 16.536 9.228 16.744 9.228C18.56 9.228 20.844 8.012 22.164 6.376Z" fill="#E8E8ED"/>
</g>
<defs>
<clipPath id="clip0_111_17">
<rect width="32.56" height="40" fill="white"/>
</clipPath>
</defs>
</svg>
